<svg xmlns="http://www.w3.org/2000/svg" xmlns:xlink="http://www.w3.org/1999/xlink" width="500" zoomAndPan="magnify" viewBox="0 0 375 374.999991" height="500" preserveAspectRatio="xMidYMid meet" version="1.0"><rect x="-37.5" width="450" fill="rgb(100%, 100%, 100%)" y="-37.499999" height="449.999989" fill-opacity="1"/><rect x="-37.5" width="450" fill="rgb(100%, 100%, 100%)" y="-37.499999" height="449.999989" fill-opacity="1"/><rect x="-37.5" width="450" fill="rgb(18.818665%, 24.708557%, 62.348938%)" y="-37.499999" height="449.999989" fill-opacity="1"/><path fill="rgb(0.779724%, 15.689087%, 35.688782%)" d="M 268.878906 88.335938 L 544.648438 364.109375 L 363.808594 544.949219 L 88.039062 269.179688 L 268.878906 88.335938 " fill-opacity="1" fill-rule="nonzero"/><path fill="rgb(64.309692%, 22.749329%, 13.729858%)" d="M 240.878906 58.445312 L 134.007812 58.445312 L 58.445312 134.007812 L 58.445312 240.878906 L 134.007812 316.445312 L 240.878906 316.445312 L 316.445312 240.878906 L 316.445312 134.007812 L 240.878906 58.445312 " fill-opacity="1" fill-rule="nonzero"/><path fill="rgb(84.709167%, 39.608765%, 18.03894%)" d="M 236.132812 68.863281 L 137.960938 68.863281 L 68.546875 138.273438 L 68.546875 236.449219 L 137.960938 305.863281 L 236.132812 305.863281 L 305.546875 236.449219 L 305.546875 138.273438 L 236.132812 68.863281 " fill-opacity="1" fill-rule="nonzero"/><path fill="rgb(81.17981%, 27.449036%, 16.079712%)" d="M 232.554688 77.480469 L 141.527344 77.480469 L 77.167969 141.839844 L 77.167969 232.867188 L 141.527344 297.230469 L 232.554688 297.230469 L 296.917969 232.867188 L 296.917969 141.839844 L 232.554688 77.480469 " fill-opacity="1" fill-rule="nonzero"/><path fill="rgb(71.759033%, 25.099182%, 14.509583%)" d="M 195.871094 116 L 80.925781 230.945312 L 146.832031 227.632812 L 143.503906 293.523438 L 258.449219 178.578125 L 261.777344 112.6875 L 195.871094 116 " fill-opacity="1" fill-rule="nonzero"/></svg>