<svg xmlns="http://www.w3.org/2000/svg" width="375" viewBox="0 0 375 375" height="375" version="1.0"><path fill="#A43A23" d="M 265.167969 0 L 109.832031 0 L 0 109.832031 L 0 265.167969 L 109.832031 375 L 265.167969 375 L 375 265.167969 L 375 109.832031 L 265.167969 0"/><path fill="#D8652E" d="M 258.632812 15.136719 L 115.722656 15.136719 L 14.679688 116.179688 L 14.679688 259.089844 L 115.722656 360.132812 L 258.632812 360.132812 L 359.679688 259.089844 L 359.679688 116.179688 L 258.632812 15.136719"/><path fill="#CF4629" d="M 253.125 27.65625 L 120.777344 27.65625 L 27.199219 121.230469 L 27.199219 253.578125 L 120.777344 347.15625 L 253.125 347.15625 L 346.699219 253.578125 L 346.699219 121.230469 L 253.125 27.65625"/><path fill="#B74025" d="M 199.371094 83.914062 L 187.316406 95.972656 L 82.867188 200.417969 L 32.675781 250.613281 L 128.488281 246.039062 L 123.894531 341.828125 L 174.085938 291.636719 L 278.53125 187.1875 L 290.589844 175.132812 L 295.183594 79.34375 L 199.371094 83.914062"/></svg>